<?xml version="1.0" encoding="utf-8"?>
<!-- Generator: Adobe Illustrator 19.0.0, SVG Export Plug-In . SVG Version: 6.00 Build 0)  -->
<svg version="1.1" id="Camada_1" xmlns="http://www.w3.org/2000/svg" xmlns:xlink="http://www.w3.org/1999/xlink" x="0px" y="0px"
	 viewBox="0 0 400 400" style="enable-background:new 0 0 400 400;" xml:space="preserve">
<style type="text/css">
	.st0{fill:#1D659B;}
	.st1{fill:#FFFFFF;}
	.st2{fill:#763E8B;}
</style>
<g id="settings">
	<g id="assets" transform="translate(-120.000000, -132.000000)">
		<g id="logo_about_stash" transform="translate(120.000000, 132.000000)">
			<g id="icone" transform="translate(38.000000, 0.000000)">
				<path id="Fill-1" class="st0" d="M208.7,195.5h-83.3c-9.2,0-16.7-7.5-16.7-16.7V95.5c0-9.2,7.5-16.7,16.7-16.7h83.3
					c9.2,0,16.7,7.5,16.7,16.7v83.3C225.4,188,217.9,195.5,208.7,195.5"/>
				<path id="Fill-4" class="st1" d="M183.7,180.9h-33.1c-5,0-9-4-9-9v-69.3c0-5,4-9,9-9h33.1c5,0,9,4,9,9v69.3
					C192.7,176.8,188.6,180.9,183.7,180.9"/>
				<polygon id="Fill-6" class="st2" points="141.5,106.1 192.7,106.1 192.7,105 141.5,105 				"/>
				<polygon id="Fill-8" class="st2" points="141.5,169.3 192.7,169.3 192.7,168.3 141.5,168.3 				"/>
				<polygon id="Fill-9" class="st2" points="165.6,100.1 168.6,100.1 168.6,99 165.6,99 				"/>
				<polygon id="Fill-10" class="st2" points="162.6,175.4 171.6,175.4 171.6,174.3 162.6,174.3 				"/>
				<path id="Fill-11" class="st0" d="M174.5,132.6c0-4.1-3.3-7.4-7.4-7.4s-7.4,3.3-7.4,7.4c0,2.7,1.4,5,3.6,6.3l-1.7,10.3h11
					l-1.7-10.3C173,137.6,174.5,135.2,174.5,132.6"/>
			</g>
			<g id="tipografia" transform="translate(0.000000, 72.000000)">
				<path id="Fill-12" class="st1" d="M74.3,189l13.5-3.6c0.7,2.4,2.1,4.4,4.3,6.1c2.2,1.7,4.7,2.5,7.5,2.5c2.2,0,3.9-0.4,5.2-1.3
					c1.3-0.9,1.9-2,1.9-3.4c0-0.6-0.1-1.1-0.4-1.6c-0.3-0.5-0.7-1-1.3-1.4c-0.6-0.5-1.2-0.9-1.7-1.2c-0.6-0.3-1.4-0.7-2.5-1.2
					c-1.1-0.4-2-0.8-2.8-1.1c-0.8-0.3-1.9-0.7-3.3-1.2c-1.4-0.5-2.5-0.9-3.4-1.2c-1.4-0.5-2.5-1-3.5-1.5c-1-0.4-2.1-1-3.4-1.7
					c-1.3-0.7-2.3-1.5-3.2-2.3c-0.9-0.8-1.7-1.8-2.5-2.8c-0.8-1.1-1.4-2.3-1.8-3.7c-0.4-1.4-0.6-2.9-0.6-4.5c0-4.6,2.1-8.6,6.2-12
					c4.1-3.4,9.3-5.1,15.4-5.1c5.4,0,10.2,1.5,14.2,4.4c4.1,3,6.8,6.7,8.2,11.4l-13.3,3.6c-0.7-2.4-1.9-4.3-3.7-5.6
					c-1.8-1.3-3.8-1.9-5.9-1.9c-2.1,0-3.7,0.4-5,1.2c-1.2,0.8-1.9,1.9-1.9,3.3c0,1.5,1.4,3,4.1,4.3c1.2,0.6,3.4,1.5,6.7,2.6
					c0.9,0.3,1.5,0.6,2,0.7c1.5,0.5,2.7,1,3.7,1.4c1,0.4,2.1,0.9,3.5,1.6c1.4,0.6,2.5,1.3,3.4,1.9c0.9,0.6,1.8,1.4,2.8,2.3
					c1,0.9,1.7,1.9,2.3,2.9c0.5,1,1,2.2,1.4,3.5c0.4,1.3,0.6,2.8,0.6,4.3c0,5.3-2.1,9.6-6.2,12.9c-4.2,3.3-9.6,5-16.2,5
					c-5.9,0-11-1.5-15.2-4.6C79.3,198.8,76.2,194.5,74.3,189"/>
				<polygon id="Fill-13" class="st1" points="123.9,160.6 123.9,147.7 172.6,147.7 172.6,160.6 155.1,160.6 155.1,205.3 
					141.2,205.3 141.2,160.6 				"/>
				<path id="Fill-14" class="st1" d="M231.8,189l13.5-3.6c0.7,2.4,2.1,4.4,4.3,6.1c2.2,1.7,4.7,2.5,7.5,2.5c2.2,0,3.9-0.4,5.2-1.3
					c1.3-0.9,1.9-2,1.9-3.4c0-0.6-0.1-1.1-0.4-1.6c-0.3-0.5-0.7-1-1.3-1.4c-0.6-0.5-1.2-0.9-1.7-1.2c-0.6-0.3-1.4-0.7-2.5-1.2
					c-1.1-0.4-2-0.8-2.8-1.1c-0.8-0.3-1.9-0.7-3.3-1.2c-1.4-0.5-2.5-0.9-3.4-1.2c-1.4-0.5-2.5-1-3.5-1.5c-1-0.4-2.1-1-3.4-1.7
					c-1.3-0.7-2.3-1.5-3.2-2.3c-0.9-0.8-1.7-1.8-2.5-2.8c-0.8-1.1-1.4-2.3-1.8-3.7c-0.4-1.4-0.6-2.9-0.6-4.5c0-4.6,2.1-8.6,6.2-12
					c4.1-3.4,9.3-5.1,15.4-5.1c5.4,0,10.2,1.5,14.2,4.4c4.1,3,6.8,6.7,8.2,11.4l-13.3,3.6c-0.7-2.4-1.9-4.3-3.7-5.6
					c-1.8-1.3-3.8-1.9-5.9-1.9c-2.1,0-3.7,0.4-5,1.2c-1.2,0.8-1.9,1.9-1.9,3.3c0,1.5,1.4,3,4.1,4.3c1.2,0.6,3.4,1.5,6.7,2.6
					c0.9,0.3,1.5,0.6,2,0.7c1.5,0.5,2.7,1,3.7,1.4c1,0.4,2.1,0.9,3.5,1.6c1.4,0.6,2.5,1.3,3.4,1.9c0.9,0.6,1.8,1.4,2.8,2.3
					c1,0.9,1.7,1.9,2.3,2.9c0.5,1,1,2.2,1.4,3.5c0.4,1.3,0.6,2.8,0.6,4.3c0,5.3-2.1,9.6-6.2,12.9c-4.2,3.3-9.6,5-16.2,5
					c-5.9,0-11-1.5-15.2-4.6C236.8,198.8,233.7,194.5,231.8,189"/>
				<polygon id="Fill-15" class="st1" points="287,205.3 287,147.7 300.8,147.7 300.8,170 322.4,170 322.4,147.7 336.2,147.7 
					336.2,205.3 322.4,205.3 322.4,182.9 300.8,182.9 300.8,205.3 				"/>
				<path id="Fill-16" class="st1" d="M204.6,187.8h-10l1.6-9.3c-1.9-1.2-3.2-3.3-3.2-5.7c0-3.7,3-6.7,6.7-6.7s6.7,3,6.7,6.7
					c0,2.4-1.3,4.5-3.2,5.7L204.6,187.8z M204.5,147.7h-9.7l-27.1,57.6H183l3.4-7.4h26.5l3.4,7.4h15.4L204.5,147.7z"/>
			</g>
		</g>
	</g>
</g>
</svg>
