<?xml version="1.0" encoding="utf-8"?>
<!-- Generator: Adobe Illustrator 19.0.0, SVG Export Plug-In . SVG Version: 6.00 Build 0)  -->
<svg version="1.1" id="Camada_1" xmlns="http://www.w3.org/2000/svg" xmlns:xlink="http://www.w3.org/1999/xlink" x="0px" y="0px"
	 viewBox="0 0 4.8 5" style="enable-background:new 0 0 4.8 5;" xml:space="preserve">
<style type="text/css">
	.st0{fill:#3E4251;}
</style>
<g id="XMLID_11_">
	<g id="XMLID_9_">
		<circle id="XMLID_10_" class="st0" cx="2.9" cy="1" r="0.2"/>
		<circle id="XMLID_47_" class="st0" cx="3.5" cy="3.5" r="0.2"/>
		<path id="XMLID_56_" class="st0" d="M3.6,2.9c-0.1,0-0.2,0-0.4,0l0,0L2.7,2.5V2c0,0,0,0,0,0c0.5,0.1,0.9-0.3,0.9-0.7
			C3.8,0.8,3.4,0.4,3,0.3C2.5,0.3,2.1,0.6,2.1,1.1C2,1.5,2.3,1.8,2.6,2v0.5L2.1,2.8c0,0,0-0.1,0-0.1c0-0.5-0.4-0.8-0.9-0.8
			C0.8,2,0.4,2.3,0.5,2.8s0.4,0.8,0.9,0.8c0.4,0,0.7-0.3,0.8-0.7l0,0l0.6-0.4l0.5,0.4C2.9,3,2.7,3.3,2.7,3.6C2.6,4,2.9,4.4,3.4,4.5
			c0.5,0.1,0.9-0.3,0.9-0.7C4.4,3.3,4.1,2.9,3.6,2.9z M1.9,3.3c-0.6-0.7-1.1,0-1.1,0C0.6,3.2,0.5,3,0.5,2.8C0.5,2.4,0.8,2,1.3,2
			C1.7,2,2,2.3,2,2.7C2.1,2.9,2,3.1,1.9,3.3z M2.3,1.6C2.2,1.5,2.1,1.3,2.1,1.1C2.2,0.7,2.6,0.4,3,0.4s0.7,0.4,0.6,0.9
			c0,0.2-0.1,0.4-0.3,0.5C2.8,0.9,2.3,1.6,2.3,1.6z M4.3,3.8C4.2,4,4.1,4.2,4,4.3C3.5,3.4,2.9,4.1,2.9,4.1C2.8,4,2.7,3.8,2.8,3.6
			c0.1-0.4,0.4-0.7,0.9-0.6C4,3,4.3,3.4,4.3,3.8z"/>
		<circle id="XMLID_60_" class="st0" cx="1.3" cy="2.6" r="0.2"/>
	</g>
	<rect id="XMLID_42_" x="2.2" y="2" class="st0" width="0.2" height="0.2"/>
	<rect id="XMLID_55_" x="3.1" y="2.3" class="st0" width="0.1" height="0.1"/>
	<rect id="XMLID_57_" x="2.5" y="2.9" class="st0" width="0.1" height="0.1"/>
</g>
</svg>
